RBDS016runT25_grf
version=1
nRows=37
nColumns=19
inDegrees=no
endheader
time	ground_force_r_vx	ground_force_r_vy	ground_force_r_vz	ground_force_r_px	ground_force_r_py	ground_force_r_pz	ground_force_r_mx	ground_force_r_my	ground_force_r_mz	ground_force_l_vx	ground_force_l_vy	ground_force_l_vz	ground_force_l_px	ground_force_l_py	ground_force_l_pz	ground_force_l_mx	ground_force_l_my	ground_force_l_mz
     22.49800000	   -125.42609018	   1296.83790080	    -11.34279518	      2.46283823	      0.00000000	      1.10491312	      0.00000000	     13.09912965	      0.00000000	      0.00000000	      0.00000000	      0.00000000	      0.00000000	      0.00000000	      0.00000000	      0.00000000	      0.00000000	      0.00000000
     22.49900000	   -126.75528467	   1312.07881075	    -12.00180424	      2.46167048	      0.00000000	      1.10505278	      0.00000000	     13.26702226	      0.00000000	      0.00000000	      0.00000000	      0.00000000	      0.00000000	      0.00000000	      0.00000000	      0.00000000	      0.00000000	      0.00000000
     22.50000000	   -128.08447917	   1327.31972071	    -12.66081330	      2.46050274	      0.00000000	      1.10519244	      0.00000000	     13.43491487	      0.00000000	      0.00000000	      0.00000000	      0.00000000	      0.00000000	      0.00000000	      0.00000000	      0.00000000	      0.00000000	      0.00000000
     22.50100000	   -128.97988322	   1341.97777633	    -13.37406330	      2.45928317	      0.00000000	      1.10535010	      0.00000000	     13.59766213	      0.00000000	      0.00000000	      0.00000000	      0.00000000	      0.00000000	      0.00000000	      0.00000000	      0.00000000	      0.00000000	      0.00000000
     22.50200000	   -129.87528726	   1356.63583195	    -14.08731329	      2.45806360	      0.00000000	      1.10550775	      0.00000000	     13.76040940	      0.00000000	      0.00000000	      0.00000000	      0.00000000	      0.00000000	      0.00000000	      0.00000000	      0.00000000	      0.00000000	      0.00000000
     22.50300000	   -130.77069131	   1371.29388758	    -14.80056328	      2.45684403	      0.00000000	      1.10566541	      0.00000000	     13.92315666	      0.00000000	      0.00000000	      0.00000000	      0.00000000	      0.00000000	      0.00000000	      0.00000000	      0.00000000	      0.00000000	      0.00000000
     22.50400000	   -131.36051217	   1385.51584763	    -15.54998464	      2.45558943	      0.00000000	      1.10583318	      0.00000000	     14.08211924	      0.00000000	      0.00000000	      0.00000000	      0.00000000	      0.00000000	      0.00000000	      0.00000000	      0.00000000	      0.00000000	      0.00000000
     22.50500000	   -131.79754144	   1399.51975989	    -16.31749168	      2.45431731	      0.00000000	      1.10600601	      0.00000000	     14.23918947	      0.00000000	      0.00000000	      0.00000000	      0.00000000	      0.00000000	      0.00000000	      0.00000000	      0.00000000	      0.00000000	      0.00000000
     22.50600000	   -132.23457071	   1413.52367215	    -17.08499872	      2.45304519	      0.00000000	      1.10617884	      0.00000000	     14.39625969	      0.00000000	      0.00000000	      0.00000000	      0.00000000	      0.00000000	      0.00000000	      0.00000000	      0.00000000	      0.00000000	      0.00000000
     22.50700000	   -132.51493105	   1427.28350666	    -17.87037650	      2.45175553	      0.00000000	      1.10635587	      0.00000000	     14.55122597	      0.00000000	      0.00000000	      0.00000000	      0.00000000	      0.00000000	      0.00000000	      0.00000000	      0.00000000	      0.00000000	      0.00000000
     22.50800000	   -132.48195352	   1440.55518570	    -18.69149576	      2.45043078	      0.00000000	      1.10654128	      0.00000000	     14.70198436	      0.00000000	      0.00000000	      0.00000000	      0.00000000	      0.00000000	      0.00000000	      0.00000000	      0.00000000	      0.00000000	      0.00000000
     22.50900000	   -132.44897600	   1453.82686473	    -19.51261502	      2.44910604	      0.00000000	      1.10672669	      0.00000000	     14.85274274	      0.00000000	      0.00000000	      0.00000000	      0.00000000	      0.00000000	      0.00000000	      0.00000000	      0.00000000	      0.00000000	      0.00000000
     22.51000000	   -132.41599847	   1467.09854376	    -20.33373427	      2.44778130	      0.00000000	      1.10691211	      0.00000000	     15.00350113	      0.00000000	      0.00000000	      0.00000000	      0.00000000	      0.00000000	      0.00000000	      0.00000000	      0.00000000	      0.00000000	      0.00000000
     22.51100000	   -131.91404110	   1479.55434240	    -21.20685011	      2.44640459	      0.00000000	      1.10710776	      0.00000000	     15.14720553	      0.00000000	      0.00000000	      0.00000000	      0.00000000	      0.00000000	      0.00000000	      0.00000000	      0.00000000	      0.00000000	      0.00000000
     22.51200000	   -131.41208373	   1492.01014104	    -22.07996594	      2.44502787	      0.00000000	      1.10730341	      0.00000000	     15.29090994	      0.00000000	      0.00000000	      0.00000000	      0.00000000	      0.00000000	      0.00000000	      0.00000000	      0.00000000	      0.00000000	      0.00000000
     22.51300000	   -130.91012636	   1504.46593968	    -22.95308178	      2.44365116	      0.00000000	      1.10749906	      0.00000000	     15.43461434	      0.00000000	      0.00000000	      0.00000000	      0.00000000	      0.00000000	      0.00000000	      0.00000000	      0.00000000	      0.00000000	      0.00000000
     22.51400000	   -130.10412204	   1516.31943542	    -23.85893618	      2.44224074	      0.00000000	      1.10770014	      0.00000000	     15.57305051	      0.00000000	      0.00000000	      0.00000000	      0.00000000	      0.00000000	      0.00000000	      0.00000000	      0.00000000	      0.00000000	      0.00000000
     22.51500000	   -129.14609424	   1527.87177971	    -24.78115986	      2.44081347	      0.00000000	      1.10790394	      0.00000000	     15.70885257	      0.00000000	      0.00000000	      0.00000000	      0.00000000	      0.00000000	      0.00000000	      0.00000000	      0.00000000	      0.00000000	      0.00000000
     22.51600000	   -128.18806644	   1539.42412400	    -25.70338355	      2.43938620	      0.00000000	      1.10810774	      0.00000000	     15.84465463	      0.00000000	      0.00000000	      0.00000000	      0.00000000	      0.00000000	      0.00000000	      0.00000000	      0.00000000	      0.00000000	      0.00000000
     22.51700000	   -127.08588000	   1550.64546277	    -26.64049706	      2.43794280	      0.00000000	      1.10831364	      0.00000000	     15.97750631	      0.00000000	      0.00000000	      0.00000000	      0.00000000	      0.00000000	      0.00000000	      0.00000000	      0.00000000	      0.00000000	      0.00000000
     22.51800000	   -125.69537629	   1561.20479052	    -27.60739023	      2.43646714	      0.00000000	      1.10852375	      0.00000000	     16.10445724	      0.00000000	      0.00000000	      0.00000000	      0.00000000	      0.00000000	      0.00000000	      0.00000000	      0.00000000	      0.00000000	      0.00000000
     22.51900000	   -124.30487257	   1571.76411827	    -28.57428339	      2.43499149	      0.00000000	      1.10873386	      0.00000000	     16.23140817	      0.00000000	      0.00000000	      0.00000000	      0.00000000	      0.00000000	      0.00000000	      0.00000000	      0.00000000	      0.00000000	      0.00000000
     22.52000000	   -122.91436885	   1582.32344602	    -29.54117656	      2.43351583	      0.00000000	      1.10894397	      0.00000000	     16.35835911	      0.00000000	      0.00000000	      0.00000000	      0.00000000	      0.00000000	      0.00000000	      0.00000000	      0.00000000	      0.00000000	      0.00000000
     22.52100000	   -121.12412790	   1591.80036492	    -30.54651781	      2.43199469	      0.00000000	      1.10915879	      0.00000000	     16.47542005	      0.00000000	      0.00000000	      0.00000000	      0.00000000	      0.00000000	      0.00000000	      0.00000000	      0.00000000	      0.00000000	      0.00000000
     22.52200000	   -119.33388696	   1601.27728382	    -31.55185906	      2.43047354	      0.00000000	      1.10937361	      0.00000000	     16.59248099	      0.00000000	      0.00000000	      0.00000000	      0.00000000	      0.00000000	      0.00000000	      0.00000000	      0.00000000	      0.00000000	      0.00000000
     22.52300000	   -117.54364602	   1610.75420272	    -32.55720031	      2.42895240	      0.00000000	      1.10958843	      0.00000000	     16.70954193	      0.00000000	      0.00000000	      0.00000000	      0.00000000	      0.00000000	      0.00000000	      0.00000000	      0.00000000	      0.00000000	      0.00000000
     22.52400000	   -115.51363783	   1619.45155977	    -33.58272151	      2.42740329	      0.00000000	      1.10980546	      0.00000000	     16.81926704	      0.00000000	      0.00000000	      0.00000000	      0.00000000	      0.00000000	      0.00000000	      0.00000000	      0.00000000	      0.00000000	      0.00000000
     22.52500000	   -113.36374603	   1627.75913590	    -34.61833269	      2.42584020	      0.00000000	      1.11002359	      0.00000000	     16.92532423	      0.00000000	      0.00000000	      0.00000000	      0.00000000	      0.00000000	      0.00000000	      0.00000000	      0.00000000	      0.00000000	      0.00000000
     22.52600000	   -111.21385422	   1636.06671202	    -35.65394386	      2.42427711	      0.00000000	      1.11024173	      0.00000000	     17.03138143	      0.00000000	      0.00000000	      0.00000000	      0.00000000	      0.00000000	      0.00000000	      0.00000000	      0.00000000	      0.00000000	      0.00000000
     22.52700000	   -108.95923739	   1643.95712661	    -36.69623389	      2.42270140	      0.00000000	      1.11046056	      0.00000000	     17.13338122	      0.00000000	      0.00000000	      0.00000000	      0.00000000	      0.00000000	      0.00000000	      0.00000000	      0.00000000	      0.00000000	      0.00000000
     22.52800000	   -106.49517050	   1651.01321813	    -37.75188164	      2.42110045	      0.00000000	      1.11068080	      0.00000000	     17.22726622	      0.00000000	      0.00000000	      0.00000000	      0.00000000	      0.00000000	      0.00000000	      0.00000000	      0.00000000	      0.00000000	      0.00000000
     22.52900000	   -104.03110361	   1658.06930964	    -38.80752938	      2.41949950	      0.00000000	      1.11090103	      0.00000000	     17.32115122	      0.00000000	      0.00000000	      0.00000000	      0.00000000	      0.00000000	      0.00000000	      0.00000000	      0.00000000	      0.00000000	      0.00000000
     22.53000000	   -101.56703672	   1665.12540115	    -39.86317712	      2.41789855	      0.00000000	      1.11112127	      0.00000000	     17.41503622	      0.00000000	      0.00000000	      0.00000000	      0.00000000	      0.00000000	      0.00000000	      0.00000000	      0.00000000	      0.00000000	      0.00000000
     22.53100000	    -98.83763543	   1670.85495756	    -40.92656397	      2.41626422	      0.00000000	      1.11134252	      0.00000000	     17.49555082	      0.00000000	      0.00000000	      0.00000000	      0.00000000	      0.00000000	      0.00000000	      0.00000000	      0.00000000	      0.00000000	      0.00000000
     22.53200000	    -96.10823414	   1676.58451397	    -41.98995081	      2.41462990	      0.00000000	      1.11156378	      0.00000000	     17.57606542	      0.00000000	      0.00000000	      0.00000000	      0.00000000	      0.00000000	      0.00000000	      0.00000000	      0.00000000	      0.00000000	      0.00000000
     22.53300000	    -93.37883285	   1682.31407038	    -43.05333765	      2.41299558	      0.00000000	      1.11178504	      0.00000000	     17.65658003	      0.00000000	      0.00000000	      0.00000000	      0.00000000	      0.00000000	      0.00000000	      0.00000000	      0.00000000	      0.00000000	      0.00000000
     22.53400000	    -90.50601430	   1687.11542423	    -44.11237046	      2.41134217	      0.00000000	      1.11200632	      0.00000000	     17.72738175	      0.00000000	      0.00000000	      0.00000000	      0.00000000	      0.00000000	      0.00000000	      0.00000000	      0.00000000	      0.00000000	      0.00000000
